<svg width="32" height="32" viewBox="0 0 32 32" fill="none" xmlns="http://www.w3.org/2000/svg">
<path d="M9.20118 17.2601H4.54477L3.42013 20.2H0.5L5.90618 6.28994H8.05681L13.4827 20.2H10.385L9.20118 17.2601ZM5.35372 14.9517H8.51061L7.44516 12.071L6.97163 9.8809H6.87298L6.39944 12.0907L5.35372 14.9517ZM26.4103 13.2746L26.7259 10.4136H26.6076L25.6605 12.584L22.4641 17.7337H21.5565L18.1629 12.5643L17.2355 10.4334H17.1172L17.5315 13.2548V20.2H14.7692V6.38859H17.4131L21.3987 12.7616L22.1485 14.2808H22.2471L22.8982 12.7221L26.7062 6.38859H29.3304V20.2H26.4103V13.2746Z" fill="#35291F"/>
<path d="M19.4035 21.6306C20.7889 21.5396 22.172 21.6602 23.5552 21.7491C25.2355 21.8571 26.9159 22.0095 28.5952 22.2105C29.5199 22.3206 30.427 22.71 31.322 23.1861C31.3977 23.2264 31.5063 23.2391 31.4997 23.4274C31.4909 23.6666 31.3703 23.6264 31.2869 23.6221C30.4895 23.601 29.6987 23.402 28.9078 23.2412C28.1159 23.0803 27.3207 22.9999 26.5265 22.9237C23.9204 22.674 21.3143 22.4666 18.7048 22.5936C16.8248 22.6846 14.947 22.8539 13.0714 23.1142C11.6619 23.3089 10.2535 23.5163 8.84518 23.7385C7.21853 23.9946 5.59957 24.3925 3.9828 24.8306C2.8991 25.1247 1.80663 25.3004 0.736094 25.7745C0.65383 25.8104 0.573756 25.8062 0.524398 25.6496C0.465167 25.4591 0.524401 25.3131 0.589115 25.1946C0.725126 24.9448 0.899524 24.8517 1.07722 24.7967C2.15762 24.4602 3.24022 24.1322 4.32063 23.7957C5.73668 23.3555 7.15382 22.9428 8.58193 22.693C9.61298 22.5131 10.644 22.3333 11.6762 22.2042C13.384 21.9904 15.0929 21.7893 16.8029 21.6433C17.6683 21.5692 18.5359 21.6306 19.4035 21.6306Z" fill="#35291F"/>
</svg>
